<?xml version="1.0" standalone="no"?><!DOCTYPE svg PUBLIC "-//W3C//DTD SVG 1.1//EN" "http://www.w3.org/Graphics/SVG/1.1/DTD/svg11.dtd"><svg t="1590722227598" class="icon" viewBox="0 0 1024 1024" version="1.1" xmlns="http://www.w3.org/2000/svg" p-id="21797" xmlns:xlink="http://www.w3.org/1999/xlink" width="32" height="32"><defs><style type="text/css"></style></defs><path d="M510.293333 327.68L174.08 604.16v285.013333c0 10.24 3.413333 18.773333 11.946667 25.6 6.826667 6.826667 15.36 11.946667 25.6 11.946667h225.28V701.44h150.186666v225.28h225.28c10.24 0 18.773333-3.413333 25.6-11.946667 6.826667-6.826667 11.946667-15.36 11.946667-25.6V607.573333v-3.413333L510.293333 327.68z" fill="#3A9CFD" p-id="21798"></path><path d="M976.213333 541.013333l-128-105.813333v-238.933333c0-5.12-1.706667-10.24-5.12-13.653334-3.413333-3.413333-8.533333-5.12-13.653333-5.12H716.8c-5.12 0-10.24 1.706667-13.653333 5.12-3.413333 3.413333-5.12 8.533333-5.12 13.653334v114.346666l-143.36-119.466666c-11.946667-10.24-27.306667-15.36-44.373334-15.36s-32.426667 5.12-44.373333 15.36L46.08 541.013333c-3.413333 3.413333-6.826667 6.826667-6.826667 11.946667 0 5.12 1.706667 10.24 3.413334 13.653333l35.84 42.666667c3.413333 3.413333 6.826667 5.12 11.946666 6.826667 5.12 0 8.533333-1.706667 13.653334-3.413334l404.48-337.92L916.48 614.4c3.413333 3.413333 6.826667 3.413333 11.946667 3.413333h1.706666c5.12 0 8.533333-3.413333 11.946667-6.826666l35.84-42.666667c3.413333-3.413333 5.12-8.533333 3.413333-13.653333 1.706667-5.12-1.706667-10.24-5.12-13.653334z" fill="#3A9CFD" p-id="21799"></path></svg>